<svg width="503" height="503" viewBox="0 0 503 503" fill="none" xmlns="http://www.w3.org/2000/svg">
<g clip-path="url(#clip0_16_38)">
<path d="M251.256 237.591C288.422 237.591 318.298 207.543 318.298 170.614C318.341 133.577 288.422 103.615 251.256 103.615C214.348 103.615 184.387 133.577 184.387 170.614C184.387 207.587 214.349 237.591 251.256 237.591Z" fill="white"/>
<path d="M305.032 248.506H197.653C178.455 248.506 162.73 266.108 162.73 287.7V395.554C162.73 396.74 163.334 397.797 163.399 399.027H339.222C339.351 397.798 339.848 396.741 339.848 395.554V287.7C339.912 266.108 324.187 248.506 305.032 248.506Z" fill="white"/>
<path d="M431.588 269.559C461.42 269.559 485.342 245.551 485.342 215.891C485.342 186.231 461.42 162.18 431.588 162.18C401.971 162.18 378.006 186.231 378.006 215.891C377.942 245.53 401.972 269.559 431.588 269.559Z" fill="white"/>
<path d="M474.708 278.317H388.662C373.217 278.317 360.598 292.424 360.598 309.789V396.202C360.598 397.13 361.051 398.014 361.116 399.028H502.146C502.211 398.014 502.642 397.13 502.642 396.202V309.789C502.707 292.424 490.11 278.317 474.708 278.317Z" fill="white"/>
<path d="M71.011 269.559C100.8 269.559 124.744 245.551 124.744 215.891C124.744 186.231 100.8 162.18 71.011 162.18C41.373 162.18 17.408 186.231 17.408 215.891C17.408 245.551 41.373 269.559 71.011 269.559Z" fill="white"/>
<path d="M114.109 278.317H27.977C12.576 278.317 0 292.424 0 309.789V396.202C0 397.13 0.453 398.014 0.539 399.028H141.569C141.634 398.014 142.044 397.13 142.044 396.202V309.789C142.087 292.424 129.489 278.317 114.109 278.317Z" fill="white"/>
</g>
<defs>
<clipPath id="clip0_16_38">
<rect width="502.643" height="502.643" fill="white"/>
</clipPath>
</defs>
</svg>
