<svg width="500" height="500" viewBox="0 0 500 500" fill="none" xmlns="http://www.w3.org/2000/svg">
<path d="M445.189 18.1639H54.8108C24.5296 18.1639 0 42.7078 0 72.9747V321.375C0 351.642 24.5296 376.186 54.8108 376.186H76.0427L32.6921 463.143C29.5899 468.014 30.3287 474.362 34.4437 478.365C36.7905 480.679 39.8607 481.836 42.9464 481.836C45.2623 481.836 47.64 481.161 49.7141 479.779L230.316 376.186H445.189C475.472 376.186 500 351.642 500 321.375V72.9747C500 42.7078 475.47 18.1639 445.189 18.1639ZM137.288 232.968C117.16 232.968 100.843 216.65 100.843 196.523C100.843 176.395 117.16 160.078 137.288 160.078C157.416 160.078 173.733 176.395 173.733 196.523C173.733 216.65 157.415 232.968 137.288 232.968ZM250.001 232.968C229.872 232.968 213.556 216.65 213.556 196.523C213.556 176.395 229.872 160.078 250.001 160.078C270.128 160.078 286.445 176.395 286.445 196.523C286.445 216.65 270.128 232.968 250.001 232.968ZM362.712 232.968C342.585 232.968 326.267 216.65 326.267 196.523C326.267 176.395 342.585 160.078 362.712 160.078C382.84 160.078 399.157 176.395 399.157 196.523C399.157 216.65 382.841 232.968 362.712 232.968Z" fill="white"/>
</svg>
