<svg width="500" height="500" viewBox="0 0 500 500" fill="none" xmlns="http://www.w3.org/2000/svg">
<path d="M493.495 225.707L375.286 112.023V21.5458C375.286 9.89112 365.666 0.281143 353.999 0.281143C342.331 0.281143 332.711 9.89112 332.711 21.5458V71.1292L264.549 5.5973C257.078 -1.86577 244.285 -1.86577 235.79 5.5973L6.94635 225.707C-1.54829 234.192 -2.67409 246.971 5.9229 255.457C14.5199 263.942 27.2107 265.067 35.7053 256.479L38.878 253.412V478.735C38.878 490.39 48.4985 500 60.1658 500H441.299C452.966 500 461.563 490.39 462.587 479.758V255.559L464.736 257.604C480.292 268.338 491.346 260.773 494.518 255.457C501.99 246.971 501.99 233.17 493.495 225.707ZM287.986 458.595H213.479V344.809H287.986V458.595ZM420.011 458.595H329.538V323.544C329.538 311.89 319.918 302.28 308.25 302.28H192.191C180.524 302.28 170.903 311.89 170.903 323.544V458.595H81.4536V250.141H420.011V458.595ZM85.5474 208.736L250.732 50.2735L414.28 208.736H85.5474Z" fill="white"/>
</svg>
