<svg width="500" height="500" viewBox="0 0 500 500" fill="none" xmlns="http://www.w3.org/2000/svg">
<path d="M477.272 93.7499H363.637V23.4377C363.637 10.4938 353.461 0 340.909 0H159.091C146.539 0 136.363 10.4938 136.363 23.4377V93.7499H22.7275C10.1758 93.7499 0 104.244 0 117.188V289.063C0 300.389 7.85645 310.095 18.6621 312.122L30.3027 314.303V476.562C30.3027 489.506 40.4785 500 53.0303 500H446.97C459.521 500 469.697 489.506 469.697 476.562V314.303L481.34 312.122C492.145 310.095 500 300.389 500 289.063V117.188C500 104.244 489.824 93.7499 477.272 93.7499ZM181.818 46.8754H318.182V93.7499H181.818V46.8754ZM424.242 453.125H75.7578V322.827L166.667 339.872V367.188C166.667 380.132 176.843 390.625 189.395 390.625H310.606C323.158 390.625 333.334 380.132 333.334 367.188V339.874L424.243 322.829V453.125H424.242ZM212.121 343.75V296.875H287.879V343.75H212.121ZM454.546 269.501L333.334 292.229V273.437C333.334 260.493 323.158 249.999 310.606 249.999H189.394C176.842 249.999 166.666 260.493 166.666 273.437V292.229L45.4541 269.501V140.625H159.091H340.909H454.546V269.501V269.501Z" fill="white"/>
</svg>
