<svg width="500" height="500" viewBox="0 0 500 500" fill="none" xmlns="http://www.w3.org/2000/svg">
<path d="M500 250C500 337.853 449.152 413.848 375.449 450.676C431.718 405.556 468.511 332.514 468.511 250C468.511 167.474 431.718 94.4439 375.449 49.3244C449.152 86.1523 500 162.159 500 250ZM448.833 250C448.833 126.252 348.188 25.5835 224.417 25.5835C100.669 25.5835 0 126.252 0 250C0 373.748 100.669 474.416 224.417 474.416C348.188 474.416 448.833 373.748 448.833 250ZM389.776 250C389.776 341.196 315.612 415.36 224.417 415.36C133.221 415.36 59.057 341.196 59.057 250C59.057 158.816 133.221 84.6405 224.417 84.6405C315.589 84.6405 389.776 158.816 389.776 250ZM241.968 178.34C261.741 178.34 271.615 186.254 271.615 202.058L271.757 205.92H306.588V201.03C306.588 180.077 301.628 165.761 291.682 158.048C281.761 150.347 263.311 146.485 236.311 146.485V125.744H212.015V146.485C183.762 146.485 164.426 150.524 153.997 158.556C143.591 166.623 138.359 181.553 138.359 203.38C138.359 225.905 143.532 241.271 153.926 249.468C164.308 257.654 183.667 261.764 212.015 261.764V319.557L206.688 319.416C192.16 319.416 182.817 317.514 178.588 313.722C174.395 309.931 172.316 301.427 172.316 288.316V284.619H136.304L136.15 291.883C136.15 313.427 141.312 328.546 151.623 337.227C161.958 345.92 179.817 350.267 205.211 350.267L212.015 350.409V374.268H236.311V350.409L243.752 350.243C269.229 350.243 287.088 345.696 297.328 336.625C307.522 327.518 312.659 311.75 312.659 289.202C312.659 268.272 307.97 253.85 298.592 246.008C289.202 238.141 271.142 233.476 244.366 231.999L236.322 231.704V178.34H241.968ZM212.026 230.511C208.684 230.322 206.9 230.228 206.699 230.228C185.451 230.228 174.856 221.393 174.856 203.699C174.856 186.797 185.522 178.352 206.853 178.352L212.026 178.199V230.511ZM236.322 263.122C252.658 263.122 263.359 264.847 268.508 268.296C273.67 271.757 276.209 278.914 276.209 289.793C276.209 309.648 264.634 319.569 241.508 319.569H236.334L236.322 263.122Z" fill="white"/>
</svg>
