<svg width="40" height="40" viewBox="0 0 40 40" fill="none" xmlns="http://www.w3.org/2000/svg">
<path d="M31.9579 0H8.04211C3.60421 0 0 3.60421 0 8.04211V31.9579C0 36.3958 3.60421 40 8.04211 40H31.9579C36.3958 40 40 36.3958 40 31.9579V8.04211C40 3.60421 36.3958 0 31.9579 0ZM32.7326 33.7516H20H7.26737V30.1642C7.26737 29.4063 7.60421 28.6821 8.19368 28.2021C11.4358 25.5411 14.9305 23.7726 15.6463 23.4189C15.7305 23.3768 15.7811 23.3011 15.7811 23.2084V18.1642C15.1495 17.7432 14.7284 17.0189 14.7284 16.2021V10.9642C14.7284 8.36211 16.8421 6.24842 19.4442 6.24842H20.0084H20.5726C23.1747 6.24842 25.2884 8.36211 25.2884 10.9642V16.2021C25.2884 17.0189 24.8674 17.7432 24.2358 18.1642V23.2084C24.2358 23.3011 24.2863 23.3768 24.3705 23.4189C25.0863 23.7642 28.5811 25.5326 31.8232 28.2021C32.4126 28.6821 32.7495 29.4063 32.7495 30.1642V33.7516H32.7326V33.7516Z" fill="white"/>
</svg>
