<svg width="40" height="40" viewBox="0 0 40 40" fill="none" xmlns="http://www.w3.org/2000/svg">
<path d="M35.6151 0H4.38487C1.96237 0 0 2.11735 0 4.72841V26.1574C0 28.7684 1.96237 30.8858 4.38487 30.8858H6.08342L2.61537 38.3874C2.36719 38.8076 2.4263 39.3552 2.75549 39.7006C2.94324 39.9002 3.18886 40 3.43571 40C3.62098 40 3.8112 39.9418 3.97713 39.8225L18.4253 30.8858H35.6151C38.0377 30.8858 40 28.7684 40 26.1574V4.72841C40 2.11735 38.0376 0 35.6151 0ZM10.983 18.5306C9.37282 18.5306 8.06743 17.123 8.06743 15.3866C8.06743 13.6503 9.37282 12.2426 10.983 12.2426C12.5933 12.2426 13.8986 13.6503 13.8986 15.3866C13.8986 17.123 12.5932 18.5306 10.983 18.5306ZM20 18.5306C18.3898 18.5306 17.0845 17.123 17.0845 15.3866C17.0845 13.6503 18.3898 12.2426 20 12.2426C21.6102 12.2426 22.9156 13.6503 22.9156 15.3866C22.9156 17.123 21.6102 18.5306 20 18.5306ZM29.017 18.5306C27.4068 18.5306 26.1014 17.123 26.1014 15.3866C26.1014 13.6503 27.4068 12.2426 29.017 12.2426C30.6272 12.2426 31.9326 13.6503 31.9326 15.3866C31.9326 17.123 30.6273 18.5306 29.017 18.5306Z" fill="white"/>
</svg>
