<svg width="40" height="40" viewBox="0 0 40 40" fill="none" xmlns="http://www.w3.org/2000/svg">
<path d="M39.4796 18.0565L30.0229 8.96181V1.72366C30.0229 0.79129 29.2533 0.0224915 28.3199 0.0224915C27.3865 0.0224915 26.6169 0.79129 26.6169 1.72366V5.69033L21.1639 0.447784C20.5662 -0.149261 19.5428 -0.149261 18.8632 0.447784L0.555708 18.0565C-0.123863 18.7354 -0.213927 19.7577 0.473832 20.4365C1.16159 21.1154 2.17685 21.2053 2.85643 20.5183L3.11024 20.273V38.2988C3.11024 39.2312 3.87988 40 4.81326 40H35.3039C36.2373 40 36.9251 39.2312 37.0069 38.3806V20.4447L37.1789 20.6083C38.4234 21.4671 39.3077 20.8618 39.5615 20.4365C40.1592 19.7577 40.1592 18.6536 39.4796 18.0565ZM23.0389 36.6876H17.0783V27.5847H23.0389V36.6876ZM33.6009 36.6876H26.363V25.8836C26.363 24.9512 25.5934 24.1824 24.66 24.1824H15.3753C14.4419 24.1824 13.6723 24.9512 13.6723 25.8836V36.6876H6.51629V20.0112H33.6009V36.6876ZM6.84379 16.6989L20.0586 4.02188L33.1424 16.6989H6.84379Z" fill="white"/>
</svg>
