<svg width="40" height="40" viewBox="0 0 40 40" fill="none" xmlns="http://www.w3.org/2000/svg">
<path d="M38.1818 7.49999H29.0909V1.87502C29.0909 0.8395 28.2769 0 27.2727 0H12.7273C11.7231 0 10.9091 0.8395 10.9091 1.87502V7.49999H1.8182C0.814063 7.49999 0 8.33949 0 9.37501V23.125C0 24.0311 0.628516 24.8076 1.49297 24.9697L2.42422 25.1442V38.125C2.42422 39.1605 3.23828 40 4.24242 40H35.7576C36.7617 40 37.5758 39.1605 37.5758 38.125V25.1442L38.5072 24.9697C39.3716 24.8076 40 24.0311 40 23.125V9.37501C40 8.33949 39.1859 7.49999 38.1818 7.49999ZM14.5455 3.75004H25.4545V7.49999H14.5455V3.75004ZM33.9394 36.25H6.06062V25.8261L13.3334 27.1897V29.375C13.3334 30.4105 14.1474 31.25 15.1516 31.25H24.8485C25.8527 31.25 26.6667 30.4105 26.6667 29.375V27.1899L33.9395 25.8263V36.25H33.9394ZM16.9697 27.5V23.75H23.0303V27.5H16.9697ZM36.3637 21.5601L26.6667 23.3783V21.8749C26.6667 20.8394 25.8527 19.9999 24.8485 19.9999H15.1515C14.1473 19.9999 13.3333 20.8394 13.3333 21.8749V23.3783L3.63633 21.5601V11.25H12.7273H27.2727H36.3637V21.5601V21.5601Z" fill="white"/>
</svg>
