<svg width="500" height="500" viewBox="0 0 500 500" fill="none" xmlns="http://www.w3.org/2000/svg">
<mask id="mask0_8_8664" style="mask-type:alpha" maskUnits="userSpaceOnUse" x="0" y="0" width="500" height="500">
<rect width="500" height="500" fill="black"/>
</mask>
<g mask="url(#mask0_8_8664)">
<path d="M250 399.207C246.266 397.73 130.778 354.245 121.919 153.359C126.348 153.728 199.312 161.628 250 106.33C299.929 160.816 373.652 153.654 378.081 153.359C367.197 360.225 253.734 397.73 250 399.207V399.207ZM391.56 121.022C364.539 125.821 303.156 129.143 258.606 73.4769C253.987 67.6445 246.077 67.6445 241.457 73.4769C196.844 129.143 135.461 125.821 108.44 121.022C101.226 119.693 94.7711 126.338 94.9609 134.828C101.226 393.596 250 430.879 250 430.879C250 430.879 398.774 393.67 405.039 134.828C405.229 126.338 398.774 119.693 391.56 121.022V121.022Z" fill="white"/>
<g clip-path="url(#clip0_8_8664)">
<path d="M249.95 346.751C241.464 342.926 234.171 337.772 228.072 331.288C221.973 324.637 216.205 316.989 210.769 308.343V347C192.868 339.019 178.084 325.053 166.416 305.1C154.88 285.148 149.178 262.619 149.311 237.512V159.2H168.603V237.512C168.603 251.812 170.659 264.365 174.769 275.172C179.012 285.813 184.647 295.041 191.675 302.856V159.45V159.2H210.769V237.512C210.769 251.812 212.36 264.365 215.542 275.172C218.857 285.813 223.962 295.041 230.857 302.856V159.45H249.95V346.751Z" fill="white"/>
</g>
<g clip-path="url(#clip1_8_8664)">
<path d="M333.383 289.773C333.383 300.521 331.189 310.628 326.8 320.093C322.411 329.559 316.377 337.901 308.697 345.12L260.423 345.361L260.971 343.917C265.909 342.473 270.571 340.548 274.96 338.141C279.349 335.735 283.371 332.928 287.029 329.719C292.88 324.585 297.451 318.65 300.743 311.912C304.034 305.013 305.68 297.634 305.68 289.773C305.68 285.281 304.674 281.11 302.663 277.26C300.834 273.249 298.274 269.88 294.983 267.153L282.64 256.805C276.24 251.351 271.12 245.174 267.28 238.276C263.44 231.378 261.52 223.757 261.52 215.415C261.52 201.137 266.914 188.704 277.703 178.116C288.674 167.367 312.72 160.604 328.446 159L314.731 185.5C307.966 187.746 300.377 191.672 295.806 197.126C291.417 202.581 289.223 208.677 289.223 215.415C289.223 219.907 290.137 224.078 291.966 227.928C293.977 231.618 296.446 234.747 299.371 237.313L314.731 249.827C320.583 254.96 325.154 260.976 328.446 267.875C331.737 274.773 333.383 282.072 333.383 289.773Z" fill="white"/>
</g>
<path fill-rule="evenodd" clip-rule="evenodd" d="M250 500C388.071 500 500 388.071 500 250C500 111.929 388.071 0 250 0C111.929 0 1.52588e-05 111.929 1.52588e-05 250C1.52588e-05 388.071 111.929 500 250 500ZM250 452C361.562 452 452 361.562 452 250C452 138.438 361.562 48 250 48C138.438 48 48 138.438 48 250C48 361.562 138.438 452 250 452Z" fill="white"/>
<g filter="url(#filter0_d_8_8664)">
<path d="M396.297 91.4591L409.353 74.9491L412.758 78.4673L405.224 86.6493C404.795 87.0647 404.381 87.4803 403.981 87.8962C403.598 88.2973 403.199 88.6981 402.785 89.0987C402.401 89.4997 401.979 89.9228 401.519 90.3679L401.608 90.4599C402.128 90.0761 402.624 89.7297 403.096 89.4206C403.599 89.112 404.102 88.8034 404.605 88.4948C405.108 88.1863 405.604 87.87 406.092 87.5461L411.256 84.5077L413.348 86.6692L410.075 91.6622C409.75 92.1548 409.426 92.6322 409.101 93.0946C408.777 93.557 408.445 94.0419 408.104 94.5492C407.779 95.0418 407.417 95.5413 407.016 96.0477L407.105 96.1396C407.58 95.7099 408.024 95.2947 408.438 94.8942C408.882 94.4941 409.304 94.1012 409.702 93.7155C410.116 93.3451 410.537 92.9672 410.965 92.582L419.345 85.2739L422.527 88.5622L405.754 101.232L402.238 97.5988L406.038 92.2297C406.424 91.6778 406.825 91.1262 407.242 90.5748C407.658 90.0234 408.074 89.5172 408.489 89.0563L408.422 88.9874C407.933 89.3716 407.413 89.7704 406.863 90.1839C406.313 90.5973 405.756 90.988 405.192 91.3559L399.701 94.9773L396.297 91.4591Z" fill="black"/>
<path d="M417.021 114.818C416.009 113.523 415.342 112.15 415.019 110.697C414.725 109.247 414.823 107.831 415.312 106.447C415.83 105.067 416.779 103.838 418.157 102.761C419.519 101.697 420.93 101.095 422.391 100.955C423.869 100.801 425.256 101.017 426.552 101.602C427.848 102.186 428.93 103.033 429.797 104.142C430.808 105.437 431.387 106.731 431.532 108.025C431.694 109.307 431.492 110.521 430.926 111.667C430.39 112.817 429.55 113.839 428.407 114.732C428.071 114.995 427.723 115.226 427.365 115.425C427.036 115.628 426.783 115.771 426.605 115.856L419.196 106.376L421.692 104.425L427.15 111.409L425.991 111.381C427 110.593 427.585 109.783 427.748 108.952C427.941 108.125 427.715 107.299 427.071 106.475C426.598 105.87 426.05 105.446 425.427 105.202C424.803 104.959 424.115 104.927 423.363 105.109C422.612 105.29 421.816 105.709 420.975 106.366C420.118 107.036 419.53 107.739 419.212 108.475C418.911 109.198 418.849 109.95 419.026 110.732C419.204 111.514 419.608 112.308 420.239 113.115C420.686 113.686 421.182 114.165 421.727 114.551C422.285 114.954 422.924 115.321 423.644 115.653L422.365 118.642C421.346 118.274 420.361 117.758 419.409 117.094C418.474 116.417 417.678 115.658 417.021 114.818Z" fill="black"/>
<path d="M430.192 133.152C429.807 132.538 429.563 131.809 429.462 130.966C429.372 130.141 429.446 129.276 429.684 128.37L429.615 128.262L427.948 128.856L425.991 125.739L444.988 113.81L447.49 117.794L442.828 120.721L440.629 121.913L440.681 121.994C441.497 122.212 442.24 122.552 442.908 123.014C443.587 123.494 444.131 124.059 444.54 124.71C445.254 125.848 445.581 126.99 445.52 128.137C445.471 129.302 445.067 130.424 444.31 131.504C443.57 132.573 442.514 133.539 441.141 134.401C439.605 135.365 438.111 135.913 436.657 136.045C435.232 136.184 433.953 135.992 432.819 135.47C431.703 134.937 430.828 134.164 430.192 133.152ZM432.883 130.216C433.189 130.704 433.602 131.061 434.123 131.288C434.644 131.516 435.267 131.565 435.992 131.437C436.736 131.298 437.569 130.939 438.49 130.36C439.303 129.849 439.915 129.339 440.325 128.83C440.754 128.309 440.99 127.782 441.034 127.251C441.09 126.737 440.936 126.192 440.573 125.614C440.301 125.18 439.935 124.818 439.475 124.527C439.045 124.243 438.473 124.035 437.761 123.903L432.314 127.324C432.245 127.896 432.263 128.426 432.368 128.914C432.484 129.421 432.656 129.854 432.883 130.216Z" fill="black"/>
<path d="M440.822 151.566C440.2 150.303 439.813 148.936 439.661 147.466C439.518 146.014 439.637 144.565 440.019 143.117L444.12 144.132C443.894 145.123 443.806 146.129 443.856 147.15C443.916 148.19 444.167 149.16 444.61 150.06C445.052 150.96 445.53 151.545 446.044 151.816C446.566 152.105 447.067 152.132 447.546 151.897C447.986 151.681 448.274 151.396 448.41 151.044C448.565 150.683 448.63 150.235 448.605 149.7C448.599 149.156 448.575 148.526 448.532 147.811L448.379 144.89C448.308 144.069 448.342 143.244 448.482 142.415C448.64 141.576 448.95 140.806 449.413 140.103C449.904 139.41 450.609 138.837 451.528 138.385C452.562 137.877 453.631 137.707 454.737 137.877C455.871 138.056 456.937 138.531 457.933 139.301C458.959 140.08 459.805 141.15 460.474 142.509C461.029 143.638 461.365 144.852 461.48 146.151C461.595 147.449 461.458 148.717 461.068 149.955L457.339 149.114C457.497 148.228 457.541 147.398 457.47 146.625C457.418 145.842 457.166 144.991 456.714 144.072C456.375 143.383 455.954 142.889 455.45 142.59C454.946 142.291 454.417 142.278 453.862 142.551C453.498 142.73 453.258 143.014 453.14 143.405C453.023 143.795 452.982 144.267 453.017 144.821C453.051 145.374 453.099 146.004 453.161 146.711L453.301 149.459C453.409 150.452 453.379 151.359 453.211 152.178C453.063 152.988 452.743 153.716 452.252 154.361C451.761 155.007 451.075 155.546 450.195 155.979C449.161 156.487 448.063 156.671 446.9 156.53C445.746 156.407 444.633 155.933 443.56 155.105C442.497 154.297 441.584 153.117 440.822 151.566Z" fill="black"/>
<path d="M447.608 164.354L462.506 158.88L463.731 162.214L462.009 163.188L462.053 163.308C462.757 163.368 463.411 163.57 464.016 163.917C464.64 164.255 465.111 164.855 465.427 165.716C465.662 166.357 465.654 166.985 465.403 167.6C465.172 168.208 464.685 168.739 463.943 169.193C464.727 169.224 465.445 169.414 466.096 169.766C466.776 170.13 467.273 170.743 467.59 171.604C467.98 172.665 467.851 173.644 467.203 174.541C466.555 175.438 465.491 176.159 464.009 176.703L453.556 180.544L452.011 176.338L462.163 172.608C463.065 172.277 463.416 171.842 463.217 171.301C463.114 171.021 462.902 170.814 462.581 170.682C462.287 170.563 461.853 170.495 461.279 170.479L451.216 174.176L449.947 170.721L460.1 166.992C460.56 166.822 460.875 166.627 461.044 166.406C461.213 166.185 461.246 165.934 461.143 165.654C461.04 165.374 460.831 165.177 460.517 165.065C460.223 164.946 459.789 164.878 459.215 164.862L449.153 168.559L447.608 164.354Z" fill="black"/>
<path d="M456.743 192.08C456.484 191.046 456.465 190.094 456.686 189.224C456.913 188.376 457.327 187.656 457.926 187.066C458.526 186.475 459.26 186.071 460.129 185.853C461.847 185.422 463.355 185.868 464.655 187.192C465.96 188.536 467.173 191.003 468.294 194.592C468.754 194.411 469.119 194.154 469.388 193.823C469.656 193.492 469.814 193.067 469.86 192.55C469.932 192.048 469.88 191.445 469.703 190.742C469.579 190.245 469.392 189.764 469.143 189.299C468.915 188.828 468.62 188.352 468.257 187.871C467.92 187.406 467.534 186.92 467.099 186.413L469.674 184.052C470.264 184.651 470.811 185.295 471.313 185.983C471.821 186.691 472.261 187.438 472.635 188.224C473.034 189.026 473.342 189.861 473.56 190.73C473.924 192.179 473.977 193.485 473.719 194.65C473.482 195.809 472.916 196.798 472.022 197.616C471.148 198.429 469.925 199.033 468.353 199.428L459.538 201.64L458.603 197.915L460.256 197.138L460.225 197.013C459.453 196.393 458.744 195.669 458.096 194.842C457.449 194.015 456.998 193.094 456.743 192.08ZM460.648 192.651C460.819 193.334 461.114 193.942 461.534 194.474C461.974 195.002 462.469 195.482 463.018 195.917L465.563 195.278C465.101 193.788 464.65 192.648 464.209 191.856C463.774 191.086 463.339 190.579 462.904 190.336C462.469 190.094 462.024 190.029 461.569 190.144C461.259 190.221 461.01 190.372 460.824 190.594C460.643 190.838 460.54 191.128 460.515 191.464C460.494 191.821 460.539 192.217 460.648 192.651Z" fill="black"/>
<path d="M461.381 209.267L465.309 208.703L465.999 213.518L478.796 211.683L478.106 206.868L482.034 206.305L484.087 220.622L480.159 221.186L479.469 216.371L466.672 218.206L467.362 223.021L463.434 223.584L461.381 209.267Z" fill="black"/>
<path d="M464.533 232.355L485.379 231.475L485.577 236.174L468.696 236.887L469.088 246.159L465.123 246.327L464.533 232.355Z" fill="black"/>
</g>
<g filter="url(#filter1_d_8_8664)">
<path d="M32.4782 244.348L11.4578 245.444L11.8518 240.564L22.9713 240.82C23.5667 240.868 24.1524 240.904 24.7282 240.93C25.2828 240.953 25.8471 240.988 26.4213 241.034C26.9759 241.058 27.5721 241.095 28.21 241.146L28.2203 241.019C27.5893 240.882 27.0016 240.739 26.4573 240.588C25.8935 240.414 25.3297 240.24 24.7658 240.066C24.202 239.892 23.6373 239.729 23.0718 239.576L17.38 237.704L17.6221 234.705L23.5327 233.866C24.1172 233.785 24.6901 233.714 25.2516 233.652C25.813 233.59 26.3966 233.52 27.0023 233.44C27.5867 233.359 28.2013 233.302 28.8461 233.268L28.8564 233.141C28.2202 233.068 27.6151 233.008 27.0409 232.962C26.4472 232.892 25.874 232.835 25.3211 232.791C24.77 232.725 24.2082 232.658 23.6358 232.591L12.6141 231.123L12.9824 226.562L33.5727 230.792L33.1658 235.832L26.6249 236.524C25.9554 236.598 25.2762 236.661 24.5871 236.713C23.8981 236.764 23.2435 236.786 22.6234 236.779L22.6157 236.874C23.2272 236.988 23.8698 237.115 24.5433 237.255C25.2169 237.395 25.8782 237.555 26.5271 237.736L32.8722 239.468L32.4782 244.348Z" fill="black"/>
<path d="M36.3364 213.361C36.0323 214.975 35.4414 216.383 34.5636 217.586C33.6689 218.763 32.5404 219.625 31.1784 220.172C29.7993 220.693 28.2502 220.792 26.5311 220.468C24.833 220.149 23.449 219.486 22.3792 218.481C21.2884 217.473 20.5345 216.289 20.1176 214.929C19.7007 213.57 19.6226 212.199 19.8833 210.815C20.1874 209.201 20.7775 207.912 21.6538 206.948C22.509 205.98 23.554 205.33 24.7888 204.998C26.0066 204.642 27.3282 204.598 28.7538 204.866C29.1731 204.945 29.576 205.054 29.9625 205.192C30.3319 205.305 30.6071 205.4 30.7879 205.477L28.5605 217.301L25.4472 216.715L27.0881 208.004L27.8324 208.893C26.5745 208.656 25.5798 208.751 24.8482 209.178C24.0995 209.579 23.6285 210.294 23.4349 211.321C23.2928 212.076 23.3361 212.768 23.5649 213.397C23.7937 214.026 24.2244 214.563 24.857 215.008C25.4896 215.453 26.33 215.774 27.3782 215.971C28.4474 216.173 29.3635 216.15 30.1264 215.903C30.8683 215.652 31.4742 215.202 31.9439 214.552C32.4136 213.903 32.7432 213.075 32.9328 212.068C33.0671 211.355 33.0991 210.667 33.0289 210.002C32.9626 209.317 32.8165 208.595 32.5904 207.836L35.6795 206.822C36.0757 207.83 36.3388 208.911 36.4689 210.064C36.578 211.214 36.5338 212.312 36.3364 213.361Z" fill="black"/>
<path d="M41.4085 191.363C41.2019 192.058 40.8154 192.722 40.249 193.355C39.6886 193.967 38.9901 194.483 38.1534 194.902L38.117 195.025L39.664 195.885L38.6157 199.413L17.1131 193.022L18.4531 188.513L23.729 190.081L26.0761 190.946L26.1034 190.854C25.7275 190.097 25.4925 189.315 25.3985 188.508C25.3105 187.68 25.3759 186.899 25.5947 186.162C25.9776 184.874 26.6197 183.874 27.521 183.163C28.4284 182.431 29.5378 181.993 30.8493 181.849C32.1403 181.698 33.5629 181.854 35.1171 182.316C36.8553 182.832 38.2539 183.593 39.3129 184.597C40.3576 185.576 41.0582 186.663 41.4148 187.859C41.7509 189.05 41.7489 190.218 41.4085 191.363ZM37.4268 191.281C37.5909 190.729 37.5864 190.182 37.4134 189.641C37.2403 189.1 36.8661 188.6 36.2907 188.139C35.6949 187.673 34.8755 187.285 33.8326 186.975C32.9124 186.701 32.1254 186.579 31.4716 186.607C30.7973 186.629 30.2461 186.799 29.8178 187.117C29.3956 187.414 29.0872 187.89 28.8928 188.545C28.7469 189.035 28.7166 189.549 28.8017 190.087C28.8725 190.597 29.0937 191.164 29.4651 191.786L35.6306 193.618C36.1059 193.292 36.4922 192.928 36.7894 192.527C37.0928 192.105 37.3053 191.69 37.4268 191.281Z" fill="black"/>
<path d="M48.2191 171.221C47.6804 172.522 46.9094 173.715 45.9058 174.8C44.9104 175.866 43.7431 176.734 42.4039 177.403L40.4583 173.653C41.3516 173.169 42.1651 172.57 42.8986 171.858C43.6404 171.126 44.2031 170.297 44.5867 169.371C44.9702 168.444 45.0941 167.699 44.9583 167.135C44.8306 166.551 44.5204 166.157 44.0277 165.953C43.5743 165.765 43.1706 165.737 42.8164 165.867C42.4425 165.989 42.0632 166.236 41.6783 166.608C41.2738 166.972 40.8169 167.406 40.3077 167.911L38.215 169.954C37.6453 170.549 37.0031 171.068 36.2886 171.511C35.5544 171.946 34.7706 172.222 33.9372 172.339C33.0923 172.427 32.1968 172.276 31.2507 171.884C30.1863 171.443 29.3528 170.752 28.7501 169.81C28.1358 168.84 27.7887 167.726 27.7088 166.469C27.6173 165.185 27.8613 163.842 28.4407 162.443C28.9222 161.28 29.6124 160.227 30.5112 159.283C31.4101 158.339 32.4529 157.605 33.6399 157.08L35.4714 160.436C34.7011 160.902 34.0491 161.417 33.5154 161.981C32.962 162.537 32.4894 163.288 32.0977 164.234C31.8038 164.944 31.7109 165.587 31.8189 166.162C31.9268 166.738 32.2666 167.144 32.8382 167.381C33.2127 167.536 33.5852 167.529 33.9557 167.359C34.3262 167.189 34.7079 166.908 35.1009 166.517C35.4939 166.125 35.9351 165.673 36.4246 165.16L38.397 163.241C39.0715 162.504 39.7717 161.928 40.4978 161.513C41.2041 161.089 41.9617 160.849 42.7706 160.791C43.5795 160.734 44.4373 160.893 45.344 161.268C46.4084 161.709 47.2715 162.413 47.9333 163.379C48.6033 164.326 48.9817 165.476 49.0684 166.828C49.1633 168.16 48.8802 169.625 48.2191 171.221Z" fill="black"/>
<path d="M53.3415 157.681L39.3935 150.107L41.0887 146.985L42.9567 147.636L43.0178 147.523C42.5979 146.955 42.3184 146.33 42.1792 145.648C42.0213 144.955 42.1613 144.205 42.599 143.399C42.9248 142.799 43.4017 142.391 44.0295 142.173C44.6386 141.946 45.3588 141.961 46.1902 142.218C45.6953 141.609 45.3646 140.944 45.1981 140.223C45.0231 139.472 45.1545 138.694 45.5922 137.888C46.1318 136.894 46.9523 136.344 48.0537 136.238C49.1551 136.132 50.3994 136.456 51.7867 137.21L61.5728 142.524L59.4348 146.461L49.9299 141.299C49.0863 140.841 48.527 140.865 48.2521 141.371C48.1096 141.634 48.0948 141.929 48.2078 142.258C48.3122 142.557 48.5479 142.928 48.9147 143.37L58.3352 148.486L56.579 151.72L47.0742 146.558C46.643 146.324 46.2886 146.216 46.0112 146.235C45.7337 146.255 45.5237 146.396 45.3811 146.658C45.2386 146.921 45.2289 147.207 45.3521 147.516C45.4565 147.816 45.6921 148.186 46.059 148.628L55.4795 153.744L53.3415 157.681Z" fill="black"/>
<path d="M68.1324 132.513C67.5268 133.391 66.8244 134.034 66.025 134.441C65.2378 134.831 64.4245 134.996 63.5852 134.935C62.7458 134.875 61.9573 134.59 61.2197 134.082C59.762 133.077 59.101 131.649 59.2365 129.799C59.3842 127.931 60.436 125.391 62.3919 122.179C61.9516 121.953 61.5183 121.849 61.092 121.866C60.6657 121.883 60.243 122.045 59.8239 122.352C59.3994 122.629 58.9813 123.067 58.5695 123.664C58.2789 124.085 58.0409 124.543 57.8556 125.037C57.6528 125.519 57.4905 126.055 57.3688 126.645C57.2416 127.205 57.1315 127.816 57.0382 128.477L53.5646 128.103C53.6251 127.264 53.7477 126.428 53.9324 125.597C54.1291 124.748 54.3995 123.924 54.7434 123.124C55.0819 122.295 55.5055 121.512 56.0141 120.774C56.8619 119.545 57.8081 118.643 58.8527 118.067C59.8797 117.48 60.9958 117.252 62.2009 117.383C63.3885 117.502 64.6496 118.022 65.9844 118.943L73.466 124.102L71.286 127.263L69.6109 126.535L69.5383 126.641C69.5819 127.63 69.5069 128.64 69.3131 129.673C69.1194 130.706 68.7258 131.652 68.1324 132.513ZM65.983 129.204C66.3827 128.624 66.6439 128.001 66.7668 127.334C66.8722 126.655 66.9067 125.966 66.8703 125.268L64.7101 123.778C63.8963 125.108 63.3377 126.2 63.0343 127.054C62.7431 127.889 62.6498 128.551 62.7546 129.037C62.8594 129.524 63.105 129.901 63.4914 130.167C63.7548 130.349 64.0316 130.436 64.3216 130.429C64.6238 130.404 64.9097 130.29 65.1791 130.087C65.4607 129.867 65.7287 129.572 65.983 129.204Z" fill="black"/>
<path d="M77.9769 117.682L74.9603 115.104L78.1203 111.406L68.2922 103.007L65.1322 106.705L62.1157 104.127L71.5125 93.1312L74.5291 95.7091L71.3691 99.4068L81.1972 107.806L84.3571 104.108L87.3737 106.686L77.9769 117.682Z" fill="black"/>
<path d="M93.235 100.069L78.8096 84.9954L82.2081 81.7431L93.89 93.9499L100.595 87.5337L103.338 90.4005L93.235 100.069Z" fill="black"/>
</g>
<g filter="url(#filter2_d_8_8664)">
<path d="M168.402 471.973L171.803 451.201L176.488 452.624L173.873 463.435C173.699 464.006 173.539 464.57 173.392 465.128C173.251 465.665 173.097 466.209 172.929 466.76C172.788 467.297 172.625 467.871 172.439 468.484L172.561 468.521C172.829 467.933 173.095 467.39 173.358 466.89C173.648 466.376 173.938 465.862 174.228 465.348C174.517 464.834 174.797 464.317 175.067 463.797L178.107 458.634L180.985 459.508L180.547 465.462C180.502 466.051 180.45 466.626 180.391 467.187C180.332 467.749 180.277 468.334 180.226 468.943C180.181 469.531 180.106 470.144 180.002 470.781L180.124 470.819C180.331 470.212 180.517 469.634 180.685 469.083C180.879 468.517 181.057 467.969 181.218 467.438C181.399 466.914 181.584 466.379 181.772 465.834L185.551 455.377L189.929 456.707L181.415 475.926L176.577 474.457L177.293 467.918C177.363 467.248 177.446 466.571 177.542 465.887C177.638 465.203 177.756 464.559 177.895 463.954L177.803 463.926C177.562 464.5 177.302 465.101 177.022 465.729C176.741 466.357 176.444 466.969 176.129 467.565L173.087 473.396L168.402 471.973Z" fill="black"/>
<path d="M200.701 481.05C199.088 480.742 197.681 480.148 196.48 479.267C195.305 478.37 194.446 477.24 193.902 475.876C193.384 474.496 193.288 472.947 193.616 471.228C193.94 469.531 194.605 468.148 195.612 467.081C196.624 465.992 197.809 465.241 199.17 464.828C200.53 464.414 201.902 464.339 203.285 464.603C204.898 464.91 206.186 465.503 207.148 466.382C208.113 467.239 208.761 468.286 209.09 469.521C209.444 470.74 209.485 472.062 209.213 473.487C209.133 473.906 209.024 474.308 208.885 474.695C208.771 475.064 208.675 475.339 208.597 475.519L196.778 473.265L197.372 470.153L206.079 471.814L205.188 472.556C205.428 471.299 205.335 470.304 204.91 469.571C204.51 468.822 203.797 468.349 202.77 468.153C202.016 468.009 201.324 468.051 200.694 468.278C200.064 468.506 199.526 468.935 199.08 469.567C198.634 470.198 198.311 471.038 198.111 472.086C197.907 473.154 197.928 474.071 198.173 474.834C198.422 475.577 198.871 476.183 199.52 476.655C200.168 477.126 200.996 477.457 202.001 477.649C202.714 477.785 203.403 477.819 204.067 477.75C204.753 477.685 205.475 477.541 206.235 477.316L207.241 480.408C206.232 480.802 205.151 481.062 203.997 481.19C202.848 481.296 201.749 481.25 200.701 481.05Z" fill="black"/>
<path d="M225.592 484.728C224.869 484.667 224.14 484.423 223.406 483.997C222.693 483.572 222.046 482.992 221.466 482.258L221.339 482.247L220.81 483.936L217.143 483.624L219.044 461.273L223.731 461.672L223.265 467.156L222.894 469.63L222.989 469.638C223.655 469.116 224.373 468.728 225.144 468.472C225.936 468.218 226.715 468.124 227.48 468.189C228.819 468.303 229.929 468.729 230.808 469.468C231.708 470.208 232.362 471.206 232.769 472.461C233.178 473.694 233.314 475.119 233.177 476.735C233.023 478.541 232.561 480.065 231.792 481.306C231.046 482.527 230.123 483.433 229.024 484.025C227.926 484.595 226.782 484.83 225.592 484.728ZM224.865 480.813C225.439 480.862 225.973 480.746 226.468 480.467C226.963 480.188 227.377 479.72 227.711 479.064C228.047 478.386 228.262 477.505 228.354 476.421C228.435 475.464 228.396 474.669 228.236 474.034C228.077 473.378 227.799 472.873 227.401 472.518C227.024 472.165 226.496 471.959 225.816 471.901C225.306 471.858 224.796 471.932 224.287 472.125C223.802 472.297 223.292 472.629 222.758 473.119L222.212 479.527C222.628 479.927 223.062 480.231 223.516 480.441C223.99 480.653 224.44 480.777 224.865 480.813Z" fill="black"/>
<path d="M249.226 485.846C247.818 485.873 246.416 485.644 245.02 485.159C243.645 484.673 242.383 483.951 241.233 482.992L243.89 479.708C244.692 480.332 245.566 480.838 246.512 481.225C247.48 481.612 248.465 481.796 249.467 481.777C250.47 481.757 251.202 481.572 251.665 481.222C252.149 480.871 252.386 480.429 252.375 479.896C252.366 479.405 252.231 479.024 251.969 478.752C251.708 478.458 251.329 478.209 250.835 478.005C250.34 477.78 249.759 477.535 249.092 477.271L246.382 476.171C245.609 475.887 244.876 475.507 244.184 475.029C243.492 474.53 242.925 473.923 242.485 473.206C242.065 472.467 241.845 471.586 241.825 470.562C241.803 469.41 242.103 468.369 242.725 467.44C243.368 466.489 244.25 465.725 245.37 465.148C246.51 464.55 247.838 464.237 249.352 464.207C250.611 464.183 251.852 464.394 253.077 464.84C254.302 465.285 255.392 465.947 256.348 466.825L254.006 469.847C253.27 469.327 252.537 468.936 251.807 468.673C251.076 468.388 250.198 468.256 249.175 468.276C248.407 468.29 247.781 468.463 247.296 468.792C246.812 469.121 246.576 469.595 246.588 470.214C246.595 470.619 246.751 470.958 247.055 471.229C247.359 471.501 247.769 471.738 248.285 471.941C248.801 472.145 249.392 472.368 250.058 472.611L252.607 473.65C253.552 473.974 254.36 474.385 255.031 474.884C255.702 475.362 256.226 475.96 256.602 476.678C256.979 477.396 257.177 478.246 257.195 479.227C257.218 480.379 256.918 481.451 256.297 482.445C255.698 483.438 254.796 484.245 253.592 484.865C252.409 485.486 250.953 485.813 249.226 485.846Z" fill="black"/>
<path d="M266.337 485.111L264.385 469.36L267.91 468.923L268.467 470.821L268.594 470.805C268.812 470.133 269.158 469.542 269.632 469.032C270.104 468.5 270.795 468.178 271.705 468.065C272.382 467.981 272.992 468.132 273.534 468.516C274.074 468.879 274.481 469.473 274.755 470.299C274.962 469.543 275.311 468.887 275.801 468.332C276.309 467.753 277.019 467.407 277.929 467.294C279.051 467.155 279.976 467.502 280.703 468.337C281.429 469.171 281.89 470.371 282.084 471.938L283.454 482.99L279.008 483.541L277.678 472.807C277.559 471.854 277.215 471.413 276.643 471.484C276.347 471.521 276.098 471.681 275.896 471.963C275.713 472.223 275.549 472.63 275.403 473.185L276.721 483.824L273.069 484.277L271.739 473.543C271.679 473.056 271.56 472.705 271.383 472.491C271.206 472.276 270.969 472.187 270.673 472.224C270.376 472.261 270.138 472.419 269.958 472.699C269.775 472.959 269.61 473.366 269.464 473.921L270.783 484.56L266.337 485.111Z" fill="black"/>
<path d="M296.723 481.13C295.684 481.37 294.732 481.37 293.867 481.132C293.022 480.889 292.311 480.462 291.732 479.851C291.154 479.24 290.763 478.498 290.562 477.625C290.164 475.899 290.639 474.399 291.988 473.125C293.357 471.846 295.846 470.681 299.457 469.629C299.285 469.166 299.035 468.796 298.709 468.521C298.383 468.246 297.962 468.081 297.445 468.025C296.945 467.943 296.341 467.984 295.634 468.147C295.135 468.262 294.651 468.439 294.181 468.679C293.706 468.898 293.224 469.184 292.737 469.537C292.265 469.865 291.771 470.241 291.257 470.667L288.945 468.047C289.556 467.468 290.21 466.934 290.907 466.445C291.625 465.951 292.381 465.525 293.174 465.167C293.983 464.784 294.824 464.491 295.697 464.29C297.152 463.954 298.46 463.926 299.619 464.207C300.773 464.466 301.751 465.05 302.552 465.96C303.348 466.849 303.928 468.084 304.293 469.664L306.335 478.52L302.593 479.382L301.847 477.715L301.722 477.744C301.087 478.503 300.35 479.199 299.511 479.83C298.671 480.462 297.742 480.895 296.723 481.13ZM297.369 477.237C298.055 477.079 298.668 476.795 299.209 476.386C299.745 475.956 300.235 475.471 300.679 474.93L300.09 472.373C298.592 472.807 297.443 473.236 296.643 473.661C295.864 474.081 295.349 474.507 295.098 474.937C294.847 475.367 294.774 475.81 294.88 476.268C294.952 476.58 295.097 476.831 295.316 477.021C295.556 477.206 295.844 477.315 296.179 477.347C296.536 477.375 296.933 477.338 297.369 477.237Z" fill="black"/>
<path d="M316.945 475.901L315.649 472.151L320.246 470.562L316.024 458.343L311.427 459.932L310.131 456.181L323.802 451.458L325.098 455.208L320.501 456.797L324.723 469.016L329.32 467.427L330.616 471.178L316.945 475.901Z" fill="black"/>
<path d="M341.598 467.103L332.76 448.203L337.021 446.211L344.178 461.516L352.585 457.585L354.265 461.179L341.598 467.103Z" fill="black"/>
</g>
</g>
<defs>
<filter id="filter0_d_8_8664" x="391.361" y="74.9491" width="97.6083" height="178.377" filterUnits="userSpaceOnUse" color-interpolation-filters="sRGB">
<feFlood flood-opacity="0" result="BackgroundImageFix"/>
<feColorMatrix in="SourceAlpha" type="matrix" values="0 0 0 0 0 0 0 0 0 0 0 0 0 0 0 0 0 0 127 0" result="hardAlpha"/>
<feOffset dy="4"/>
<feGaussianBlur stdDeviation="1.5"/>
<feComposite in2="hardAlpha" operator="out"/>
<feColorMatrix type="matrix" values="0 0 0 0 0 0 0 0 0 0 0 0 0 0 0 0 0 0 0.5 0"/>
<feBlend mode="normal" in2="BackgroundImageFix" result="effect1_dropShadow_8_8664"/>
<feBlend mode="normal" in="SourceGraphic" in2="effect1_dropShadow_8_8664" result="shape"/>
</filter>
<filter id="filter1_d_8_8664" x="8.45782" y="75.3269" width="97.8802" height="178.796" filterUnits="userSpaceOnUse" color-interpolation-filters="sRGB">
<feFlood flood-opacity="0" result="BackgroundImageFix"/>
<feColorMatrix in="SourceAlpha" type="matrix" values="0 0 0 0 0 0 0 0 0 0 0 0 0 0 0 0 0 0 127 0" result="hardAlpha"/>
<feOffset dy="4"/>
<feGaussianBlur stdDeviation="1.5"/>
<feComposite in2="hardAlpha" operator="out"/>
<feColorMatrix type="matrix" values="0 0 0 0 0 0 0 0 0 0 0 0 0 0 0 0 0 0 0.5 0"/>
<feBlend mode="normal" in2="BackgroundImageFix" result="effect1_dropShadow_8_8664"/>
<feBlend mode="normal" in="SourceGraphic" in2="effect1_dropShadow_8_8664" result="shape"/>
</filter>
<filter id="filter2_d_8_8664" x="162.739" y="442.28" width="194.527" height="50.7194" filterUnits="userSpaceOnUse" color-interpolation-filters="sRGB">
<feFlood flood-opacity="0" result="BackgroundImageFix"/>
<feColorMatrix in="SourceAlpha" type="matrix" values="0 0 0 0 0 0 0 0 0 0 0 0 0 0 0 0 0 0 127 0" result="hardAlpha"/>
<feOffset dy="4"/>
<feGaussianBlur stdDeviation="1.5"/>
<feComposite in2="hardAlpha" operator="out"/>
<feColorMatrix type="matrix" values="0 0 0 0 0 0 0 0 0 0 0 0 0 0 0 0 0 0 0.5 0"/>
<feBlend mode="normal" in2="BackgroundImageFix" result="effect1_dropShadow_8_8664"/>
<feBlend mode="normal" in="SourceGraphic" in2="effect1_dropShadow_8_8664" result="shape"/>
</filter>
<clipPath id="clip0_8_8664">
<rect width="101" height="189" fill="white" transform="translate(149 158)"/>
</clipPath>
<clipPath id="clip1_8_8664">
<rect width="75" height="188" fill="white" transform="translate(259 159)"/>
</clipPath>
</defs>
</svg>
